<svg width="1248" height="90" viewBox="0 0 1248 90" fill="none" xmlns="http://www.w3.org/2000/svg">
<g clip-path="url(#clip0_66_4378)">
<g filter="url(#filter0_f_66_4378)">
<path d="M1243.57 48.9216C1243.84 48.9216 1244.05 48.7069 1244.05 48.442C1244.05 48.1771 1243.84 47.9624 1243.57 47.9624H1194.66C1194.39 47.9624 1194.18 48.1771 1194.18 48.442C1194.18 48.7069 1194.39 48.9216 1194.66 48.9216H1243.57Z" fill="url(#paint0_linear_66_4378)"/>
</g>
<g filter="url(#filter1_f_66_4378)">
<path d="M1116.96 24.9404C1117.23 24.9404 1117.44 24.7257 1117.44 24.4608C1117.44 24.1959 1117.23 23.9812 1116.96 23.9812L1075.72 23.9812C1075.45 23.9812 1075.24 24.1959 1075.24 24.4608C1075.24 24.7257 1075.45 24.9404 1075.72 24.9404L1116.96 24.9404Z" fill="url(#paint1_linear_66_4378)"/>
</g>
<g filter="url(#filter2_f_66_4378)">
<path d="M1176.43 85.3731C1176.7 85.3731 1176.91 85.1583 1176.91 84.8934C1176.91 84.6286 1176.7 84.4138 1176.43 84.4138L1052.7 84.4138C1052.43 84.4138 1052.22 84.6286 1052.22 84.8934C1052.22 85.1583 1052.43 85.3731 1052.7 85.3731L1176.43 85.3731Z" fill="url(#paint2_linear_66_4378)"/>
</g>
<g filter="url(#filter3_f_66_4378)">
<path d="M176.009 78.6582C176.274 78.6582 176.489 78.4435 176.489 78.1786C176.489 77.9137 176.274 77.699 176.009 77.699H127.091C126.826 77.699 126.612 77.9137 126.612 78.1786C126.612 78.4435 126.826 78.6582 127.091 78.6582H176.009Z" fill="url(#paint3_linear_66_4378)"/>
</g>
<g filter="url(#filter4_f_66_4378)">
<path d="M128.05 40.2884C128.315 40.2884 128.53 40.0736 128.53 39.8087C128.53 39.5438 128.315 39.3291 128.05 39.3291L4.31629 39.3291C4.05142 39.3291 3.8367 39.5438 3.8367 39.8087C3.8367 40.0736 4.05142 40.2884 4.31629 40.2884L128.05 40.2884Z" fill="url(#paint4_linear_66_4378)"/>
</g>
<path d="M174.091 78.658C174.356 78.658 174.57 78.4432 174.57 78.1784C174.57 77.9135 174.356 77.6987 174.091 77.6987H125.173C124.908 77.6987 124.693 77.9135 124.693 78.1784C124.693 78.4432 124.908 78.658 125.173 78.658H174.091Z" fill="url(#paint5_linear_66_4378)"/>
<path d="M954.861 58.5139C955.126 58.5139 955.341 58.2992 955.341 58.0343C955.341 57.7694 955.126 57.5547 954.861 57.5547H905.943C905.678 57.5547 905.464 57.7694 905.464 58.0343C905.464 58.2992 905.678 58.5139 905.943 58.5139H954.861Z" fill="url(#paint6_linear_66_4378)"/>
<path d="M1242.61 48.9214C1242.88 48.9214 1243.09 48.7067 1243.09 48.4418C1243.09 48.1769 1242.88 47.9622 1242.61 47.9622H1193.7C1193.43 47.9622 1193.22 48.1769 1193.22 48.4418C1193.22 48.7067 1193.43 48.9214 1193.7 48.9214H1242.61Z" fill="url(#paint7_linear_66_4378)"/>
<path d="M1116 24.9402C1116.27 24.9402 1116.48 24.7255 1116.48 24.4606C1116.48 24.1957 1116.27 23.981 1116 23.981L1074.76 23.981C1074.49 23.981 1074.28 24.1957 1074.28 24.4606C1074.28 24.7255 1074.49 24.9402 1074.76 24.9402L1116 24.9402Z" fill="url(#paint8_linear_66_4378)"/>
<path d="M127.091 40.2881C127.356 40.2881 127.571 40.0734 127.571 39.8085C127.571 39.5436 127.356 39.3289 127.091 39.3289L3.35731 39.3289C3.09244 39.3289 2.87772 39.5436 2.87772 39.8085C2.87772 40.0734 3.09244 40.2881 3.35731 40.2881L127.091 40.2881Z" fill="url(#paint9_linear_66_4378)"/>
<path d="M887.719 0.959003C887.984 0.959003 888.198 0.74427 888.198 0.47938C888.198 0.214489 887.984 -0.000244141 887.719 -0.000244141L763.985 -0.000244141C763.72 -0.000244141 763.505 0.214489 763.505 0.47938C763.505 0.74427 763.72 0.959003 763.985 0.959003L887.719 0.959003Z" fill="url(#paint10_linear_66_4378)"/>
<path d="M1175.47 85.3728C1175.74 85.3728 1175.95 85.1581 1175.95 84.8932C1175.95 84.6283 1175.74 84.4136 1175.47 84.4136L1051.74 84.4136C1051.47 84.4136 1051.26 84.6283 1051.26 84.8932C1051.26 85.1581 1051.47 85.3728 1051.74 85.3728L1175.47 85.3728Z" fill="url(#paint11_linear_66_4378)"/>
<path opacity="0.5" d="M1215.76 59.4734C1216.02 59.4734 1216.24 59.2587 1216.24 58.9938C1216.24 58.7289 1216.02 58.5142 1215.76 58.5142H1188.9C1188.64 58.5142 1188.42 58.7289 1188.42 58.9938C1188.42 59.2587 1188.64 59.4734 1188.9 59.4734H1215.76Z" fill="url(#paint12_linear_66_4378)" fill-opacity="0.66"/>
<path opacity="0.5" d="M1189.86 32.6145C1190.12 32.6145 1190.34 32.3998 1190.34 32.1349C1190.34 31.87 1190.12 31.6553 1189.86 31.6553L1119.84 31.6553C1119.57 31.6553 1119.36 31.87 1119.36 32.1349C1119.36 32.3998 1119.57 32.6145 1119.84 32.6145L1189.86 32.6145Z" fill="url(#paint13_linear_66_4378)" fill-opacity="0.66"/>
<path opacity="0.5" d="M212.458 55.6362C212.723 55.6362 212.938 55.4215 212.938 55.1566C212.938 54.8917 212.723 54.677 212.458 54.677H176.968C176.703 54.677 176.489 54.8917 176.489 55.1566C176.489 55.4215 176.703 55.6362 176.968 55.6362H212.458Z" fill="url(#paint14_linear_66_4378)" fill-opacity="0.66"/>
<path opacity="0.5" d="M178.887 28.7774C179.151 28.7774 179.366 28.5626 179.366 28.2977C179.366 28.0328 179.151 27.8181 178.887 27.8181L86.8056 27.8181C86.5407 27.8181 86.326 28.0328 86.326 28.2977C86.326 28.5626 86.5407 28.7774 86.8056 28.7774L178.887 28.7774Z" fill="url(#paint15_linear_66_4378)" fill-opacity="0.66"/>
<path opacity="0.25" d="M85.8466 61.3919C86.1115 61.3919 86.3262 61.1771 86.3262 60.9122C86.3262 60.6474 86.1115 60.4326 85.8466 60.4326H34.051C33.7861 60.4326 33.5714 60.6474 33.5714 60.9122C33.5714 61.1771 33.7861 61.3919 34.051 61.3919H85.8466Z" fill="url(#paint16_linear_66_4378)" fill-opacity="0.66"/>
</g>
<defs>
<filter id="filter0_f_66_4378" x="1190.18" y="43.9624" width="57.8774" height="8.95923" filterUnits="userSpaceOnUse" color-interpolation-filters="sRGB">
<feFlood flood-opacity="0" result="BackgroundImageFix"/>
<feBlend mode="normal" in="SourceGraphic" in2="BackgroundImageFix" result="shape"/>
<feGaussianBlur stdDeviation="2" result="effect1_foregroundBlur_66_4378"/>
</filter>
<filter id="filter1_f_66_4378" x="1071.24" y="19.9812" width="50.2036" height="8.95923" filterUnits="userSpaceOnUse" color-interpolation-filters="sRGB">
<feFlood flood-opacity="0" result="BackgroundImageFix"/>
<feBlend mode="normal" in="SourceGraphic" in2="BackgroundImageFix" result="shape"/>
<feGaussianBlur stdDeviation="2" result="effect1_foregroundBlur_66_4378"/>
</filter>
<filter id="filter2_f_66_4378" x="1048.22" y="80.4138" width="132.693" height="8.95923" filterUnits="userSpaceOnUse" color-interpolation-filters="sRGB">
<feFlood flood-opacity="0" result="BackgroundImageFix"/>
<feBlend mode="normal" in="SourceGraphic" in2="BackgroundImageFix" result="shape"/>
<feGaussianBlur stdDeviation="2" result="effect1_foregroundBlur_66_4378"/>
</filter>
<filter id="filter3_f_66_4378" x="122.611" y="73.699" width="57.8774" height="8.95923" filterUnits="userSpaceOnUse" color-interpolation-filters="sRGB">
<feFlood flood-opacity="0" result="BackgroundImageFix"/>
<feBlend mode="normal" in="SourceGraphic" in2="BackgroundImageFix" result="shape"/>
<feGaussianBlur stdDeviation="2" result="effect1_foregroundBlur_66_4378"/>
</filter>
<filter id="filter4_f_66_4378" x="-0.163086" y="35.3291" width="132.693" height="8.95923" filterUnits="userSpaceOnUse" color-interpolation-filters="sRGB">
<feFlood flood-opacity="0" result="BackgroundImageFix"/>
<feBlend mode="normal" in="SourceGraphic" in2="BackgroundImageFix" result="shape"/>
<feGaussianBlur stdDeviation="2" result="effect1_foregroundBlur_66_4378"/>
</filter>
<linearGradient id="paint0_linear_66_4378" x1="1244.05" y1="48.442" x2="1194.18" y2="48.442" gradientUnits="userSpaceOnUse">
<stop stop-color="white"/>
<stop offset="1" stop-color="white" stop-opacity="0"/>
</linearGradient>
<linearGradient id="paint1_linear_66_4378" x1="1117.44" y1="24.4608" x2="1075.24" y2="24.4608" gradientUnits="userSpaceOnUse">
<stop stop-color="white"/>
<stop offset="1" stop-color="white" stop-opacity="0"/>
</linearGradient>
<linearGradient id="paint2_linear_66_4378" x1="1176.91" y1="84.8934" x2="1052.22" y2="84.8934" gradientUnits="userSpaceOnUse">
<stop stop-color="white"/>
<stop offset="1" stop-color="white" stop-opacity="0"/>
</linearGradient>
<linearGradient id="paint3_linear_66_4378" x1="176.489" y1="78.1786" x2="126.612" y2="78.1786" gradientUnits="userSpaceOnUse">
<stop stop-color="white"/>
<stop offset="1" stop-color="white" stop-opacity="0"/>
</linearGradient>
<linearGradient id="paint4_linear_66_4378" x1="128.53" y1="39.8087" x2="3.8367" y2="39.8087" gradientUnits="userSpaceOnUse">
<stop stop-color="white"/>
<stop offset="1" stop-color="white" stop-opacity="0"/>
</linearGradient>
<linearGradient id="paint5_linear_66_4378" x1="174.57" y1="78.1784" x2="124.693" y2="78.1784" gradientUnits="userSpaceOnUse">
<stop stop-color="white"/>
<stop offset="1" stop-color="white" stop-opacity="0"/>
</linearGradient>
<linearGradient id="paint6_linear_66_4378" x1="955.341" y1="58.0343" x2="905.463" y2="58.0343" gradientUnits="userSpaceOnUse">
<stop stop-color="white"/>
<stop offset="1" stop-color="white" stop-opacity="0"/>
</linearGradient>
<linearGradient id="paint7_linear_66_4378" x1="1243.09" y1="48.4418" x2="1193.22" y2="48.4418" gradientUnits="userSpaceOnUse">
<stop stop-color="white"/>
<stop offset="1" stop-color="white" stop-opacity="0"/>
</linearGradient>
<linearGradient id="paint8_linear_66_4378" x1="1116.48" y1="24.4606" x2="1074.28" y2="24.4606" gradientUnits="userSpaceOnUse">
<stop stop-color="white"/>
<stop offset="1" stop-color="white" stop-opacity="0"/>
</linearGradient>
<linearGradient id="paint9_linear_66_4378" x1="127.571" y1="39.8085" x2="2.87752" y2="39.8085" gradientUnits="userSpaceOnUse">
<stop stop-color="white"/>
<stop offset="1" stop-color="white" stop-opacity="0"/>
</linearGradient>
<linearGradient id="paint10_linear_66_4378" x1="888.198" y1="0.479377" x2="763.505" y2="0.479377" gradientUnits="userSpaceOnUse">
<stop stop-color="white"/>
<stop offset="1" stop-color="white" stop-opacity="0"/>
</linearGradient>
<linearGradient id="paint11_linear_66_4378" x1="1175.95" y1="84.8932" x2="1051.26" y2="84.8932" gradientUnits="userSpaceOnUse">
<stop stop-color="white"/>
<stop offset="1" stop-color="white" stop-opacity="0"/>
</linearGradient>
<linearGradient id="paint12_linear_66_4378" x1="1216.24" y1="58.9938" x2="1188.42" y2="58.9938" gradientUnits="userSpaceOnUse">
<stop stop-color="white"/>
<stop offset="1" stop-color="white" stop-opacity="0"/>
</linearGradient>
<linearGradient id="paint13_linear_66_4378" x1="1190.34" y1="32.1349" x2="1119.36" y2="32.1349" gradientUnits="userSpaceOnUse">
<stop stop-color="white"/>
<stop offset="1" stop-color="white" stop-opacity="0"/>
</linearGradient>
<linearGradient id="paint14_linear_66_4378" x1="212.938" y1="55.1566" x2="176.489" y2="55.1566" gradientUnits="userSpaceOnUse">
<stop stop-color="white"/>
<stop offset="1" stop-color="white" stop-opacity="0"/>
</linearGradient>
<linearGradient id="paint15_linear_66_4378" x1="179.366" y1="28.2977" x2="86.326" y2="28.2977" gradientUnits="userSpaceOnUse">
<stop stop-color="white"/>
<stop offset="1" stop-color="white" stop-opacity="0"/>
</linearGradient>
<linearGradient id="paint16_linear_66_4378" x1="86.3262" y1="60.9122" x2="33.5714" y2="60.9122" gradientUnits="userSpaceOnUse">
<stop stop-color="white"/>
<stop offset="1" stop-color="white" stop-opacity="0"/>
</linearGradient>
<clipPath id="clip0_66_4378">
<rect width="1247.89" height="89.21" fill="white"/>
</clipPath>
</defs>
</svg>
