<svg width="1280" height="286" viewBox="0 0 1280 286" fill="none" xmlns="http://www.w3.org/2000/svg">
<g clip-path="url(#clip0_2_3385)">
<mask id="mask0_2_3385" style="mask-type:luminance" maskUnits="userSpaceOnUse" x="0" y="0" width="1283" height="286">
<path d="M1282.64 0.445068H0V285.484H1282.64V0.445068Z" fill="white"/>
</mask>
<g mask="url(#mask0_2_3385)">
<path d="M641.767 1058.65C1048.35 1058.65 1377.95 828.146 1377.95 543.801C1377.95 259.456 1048.35 28.9492 641.767 28.9492C235.184 28.9492 -94.4165 259.456 -94.4165 543.801C-94.4165 828.146 235.184 1058.65 641.767 1058.65Z" fill="url(#paint0_linear_2_3385)" fill-opacity="0.1"/>
<path d="M1377.5 543.801C1377.5 685.788 1295.21 814.379 1162.07 907.494C1028.93 1000.6 844.978 1058.21 641.767 1058.21C438.555 1058.21 254.601 1000.6 121.462 907.494C-11.6791 814.379 -93.9712 685.788 -93.9712 543.801C-93.9712 401.814 -11.6791 273.223 121.462 180.111C254.601 86.9991 438.555 29.3943 641.767 29.3943C844.978 29.3943 1028.93 86.9991 1162.07 180.111C1295.21 273.223 1377.5 401.814 1377.5 543.801Z" stroke="url(#paint1_linear_2_3385)" stroke-opacity="0.2"/>
</g>
</g>
<defs>
<linearGradient id="paint0_linear_2_3385" x1="641.767" y1="28.9489" x2="642.272" y2="366.632" gradientUnits="userSpaceOnUse">
<stop offset="0.0001" stop-color="#2B2B2B"/>
<stop offset="0.302147" stop-color="white" stop-opacity="0.9"/>
<stop offset="0.700957" stop-color="white" stop-opacity="0"/>
</linearGradient>
<linearGradient id="paint1_linear_2_3385" x1="641.767" y1="28.9489" x2="641.767" y2="630.619" gradientUnits="userSpaceOnUse">
<stop stop-color="white"/>
<stop offset="0.388766" stop-opacity="0"/>
</linearGradient>
<clipPath id="clip0_2_3385">
<rect width="1279.97" height="285.93" fill="white"/>
</clipPath>
</defs>
</svg>
